{
    "accessors": {
        "accessor_buffer_Rectangle01_0": {
            "bufferView": "bufferView_buffer_Rectangle01_0",
            "byteOffset": 0,
            "byteStride": 44,
            "componentType": 5126,
            "count": 13736,
            "max": [
                0,
                37.552799224853516,
                0.2676999866962433
            ],
            "min": [
                -44.32609939575195,
                -13.779600143432617,
                -3.956199884414673
            ],
            "type": "VEC3"
        },
        "accessor_buffer_Rectangle01_1": {
            "bufferView": "bufferView_buffer_Rectangle01_0",
            "byteOffset": 12,
            "byteStride": 44,
            "componentType": 5126,
            "count": 13736,
            "max": [
                0.999969482421875,
                1.0,
                0.9999881982803345
            ],
            "min": [
                -0.999969482421875,
                -1.0,
                -0.9999881982803345
            ],
            "type": "VEC3"
        },
        "accessor_buffer_Rectangle01_2": {
            "bufferView": "bufferView_buffer_Rectangle01_0",
            "byteOffset": 24,
            "byteStride": 44,
            "componentType": 5126,
            "count": 13736,
            "max": [
                3.2620999813079834,
                1.6328999996185303
            ],
            "min": [
                -0.09210000187158585,
                -0.02199995517730713
            ],
            "type": "VEC2"
        },
        "accessor_buffer_Rectangle01_3": {
            "bufferView": "bufferView_buffer_Rectangle01_0",
            "byteOffset": 32,
            "byteStride": 44,
            "componentType": 5126,
            "count": 13736,
            "max": [
                1.0,
                1.0,
                1.0
            ],
            "min": [
                1.0,
                1.0,
                1.0
            ],
            "type": "VEC3"
        },
        "accessor_buffer_Rectangle01_4": {
            "bufferView": "bufferView_buffer_Rectangle01_1",
            "byteOffset": 0,
            "byteStride": 2,
            "componentType": 5123,
            "count": 52164,
            "max": [
                13735
            ],
            "min": [
                0
            ],
            "type": "SCALAR"
        }
    },
    "asset": {
        "profile": {
            "api": "WebGL",
            "version": "1.0.3"
        },
        "version": "1.0"
    },
    "bufferViews": {
        "bufferView_buffer_Rectangle01_0": {
            "buffer": "buffer_combined",
            "byteLength": 604384,
            "byteOffset": 0,
            "target": 34962
        },
        "bufferView_buffer_Rectangle01_1": {
            "buffer": "buffer_combined",
            "byteLength": 104328,
            "byteOffset": 604384,
            "target": 34963
        }
    },
    "buffers": {
        "buffer_combined": {
            "byteLength": 708712,
            "type": "arraybuffer",
            "uri": "buffer_combined.bin"
        }
    },
    "extensions": {
        "KHR_materials_common": {
            "lights": {}
        }
    },
    "extensionsUsed": [
        "KHR_materials_common"
    ],
    "materials": {
        "material_wire_006135058": {
            "extensions": {
                "KHR_materials_common": {
                    "technique": "PHONG",
                    "values": {
                        "ambient": [
                            0.0,
                            0.0,
                            0.0,
                            1.0
                        ],
                        "diffuse": [
                            0.05537303909659386,
                            0.06372013688087463,
                            0.062094345688819885,
                            1.0
                        ],
                        "doubleSided": false,
                        "emission": [
                            0.0,
                            0.0,
                            0.0,
                            1.0
                        ],
                        "shininess": 17,
                        "specular": [
                            0.3499999940395355,
                            0.3499999940395355,
                            0.3499999940395355,
                            1.0
                        ],
                        "transparency": 1.0,
                        "transparent": true
                    }
                }
            },
            "name": "wire_006135058"
        }
    },
    "meshes": {
        "mesh_Rectangle01": {
            "name": "Rectangle01",
            "primitives": [
                {
                    "attributes": {
                        "COLOR_0": "accessor_buffer_Rectangle01_3",
                        "NORMAL": "accessor_buffer_Rectangle01_1",
                        "POSITION": "accessor_buffer_Rectangle01_0",
                        "TEXCOORD_0": "accessor_buffer_Rectangle01_2"
                    },
                    "indices": "accessor_buffer_Rectangle01_4",
                    "material": "material_wire_006135058",
                    "mode": 4
                }
            ]
        }
    },
    "nodes": {
        "node_Rectangle01": {
            "children": [],
            "matrix": [
                0.20000000298023224,
                0.0,
                0.0,
                0.0,
                0.0,
                -8.742278012618954e-09,
                0.20000000298023224,
                0.0,
                0.0,
                -0.20000000298023224,
                -8.742278012618954e-09,
                0.0,
                6.5,
                0.0,
                -2.0,
                1.0
            ],
            "meshes": [
                "mesh_Rectangle01"
            ],
            "name": "Rectangle01"
        }
    },
    "samplers": {
        "sampler_default": {}
    },
    "scene": "scene_Scene",
    "scenes": {
        "scene_Scene": {
            "extras": {
                "active_camera": null,
                "background_color": [
                    0.05087608844041824,
                    0.05087608844041824,
                    0.05087608844041824
                ],
                "frames_per_second": 24
            },
            "name": "Scene",
            "nodes": [
                "node_Rectangle01"
            ]
        }
    }
}
